<?xml version="1.0" encoding="utf-8"?>
<!-- Generator: Adobe Illustrator 21.0.2, SVG Export Plug-In . SVG Version: 6.00 Build 0)  -->
<svg version="1.0" id="Layer_1" xmlns="http://www.w3.org/2000/svg" xmlns:xlink="http://www.w3.org/1999/xlink" x="0px" y="0px"
	 viewBox="0 0 216 54.7" style="enable-background:new 0 0 216 54.7;" xml:space="preserve">
<style type="text/css">
	.st0{fill-rule:evenodd;clip-rule:evenodd;fill:#774C9E;}
</style>
<path class="st0" d="M48.9,27l-1.4,0.3L44.9,0L0,5.2l5.5,44.9l5.3-0.8c-0.4-0.6-1.1-1.3-2.2-2.3c-1.5-1.3-1-3.5-0.1-4.9
	c1.2-2.3,7.4-5.3,7.1-9c-0.1-1.4-0.3-3.1-1.6-4.3c0,0.5,0,1,0,1s-0.5-0.7-0.8-1.6c-0.3-0.3-0.5-0.5-0.7-0.9
	c-0.2,0.5-0.2,1.2-0.2,1.2s-0.4-1-0.5-1.8c-0.3,0.4-0.3,1.1-0.3,1.1s-0.5-1.6-0.4-2.4c-0.3-0.7-1-2.2-0.8-5.5c1.4,1,4.4,0.7,5.6-1
	c0.4-0.6,0.7-2.1-0.2-5.2c-0.5-2-1.9-4.9-2.4-6l-0.1,0c0.3,0.9,0.9,2.8,1.1,3.7c0.7,2.8,0.8,3.7,0.5,5c-0.3,1.1-0.9,1.8-2.5,2.7
	c-1.6,0.8-3.8-1.2-3.9-1.3c-1.6-1.3-2.8-3.3-2.9-4.3c-0.1-1.1,0.6-1.7,1-2.6c-0.6,0.2-1.2,0.4-1.2,0.4S6.1,10.5,7,9.8
	c0.4-0.3,0.6-0.4,1-0.7c-0.6,0-1,0-1,0s1-0.5,2-0.9c-0.7,0-1.4,0-1.4,0s2.1-1,3.8-1.7c1.2-0.5,2.3-0.3,2.9,0.6
	C15,8.3,15.9,9,17.8,9.4c1.1-0.5,1.5-0.8,2.9-1.2C22,6.9,23,6.7,23,6.7s-0.5,0.5-0.6,1.2c0.7-0.6,1.5-1,1.5-1s-0.3,0.4-0.6,1
	l0.1,0.1C24.2,7.4,25.2,7,25.2,7s-0.3,0.4-0.6,0.8c0.6,0,1.9,0,2.4,0.1c2.9,0.1,3.5-3.1,4.7-3.5c1.4-0.5,2-0.8,4.4,1.6
	c2.1,2,3.7,5.6,2.9,6.5c-0.7,0.7-2-0.3-3.5-2.1c-0.8-1-1.4-2.1-1.6-3.6c-0.2-1.2-1.1-1.9-1.1-1.9s0.5,1.2,0.5,2.2
	c0,0.6,0.1,2.7,1,3.8c-0.1,0.2-0.1,0.8-0.2,1c-1-1.3-3.3-2.2-3.7-2.4c1.2,1,4.1,3.3,5.2,5.6c1,2.1,0.4,4.1,0.9,4.6
	c0.1,0.1,2.2,2.7,2.6,4c0.7,2.3,0,4.6-0.9,6.1L35.6,30c-0.4-0.1-0.6-0.2-1-0.3c0.2-0.3,0.6-1.1,0.6-1.3l-0.1-0.3
	c-0.8,1.1-2.1,2.2-3.2,2.8c-1.4,0.8-3.1,0.7-4.2,0.4c-3.1-0.9-6-3-6.7-3.6c0,0,0,0.4,0.1,0.5c0.8,0.9,2.6,2.5,4.3,3.6l-3.7,0.4
	l1.7,13.5c-0.8,0.1-0.9,0.2-1.7,0.3c-0.7-2.6-2.2-4.3-3.7-5.3c-1.4-0.9-3.2-1.1-5-0.7l-0.1,0.1c1.3-0.1,2.7,0.1,4.3,1
	c1.5,0.9,2.7,3.4,3.1,4.8c0.6,1.9,1,3.9-0.6,6c-1.1,1.5-4.3,2.3-6.8,0.5c0.7,1.1,1.6,2,2.8,2.2c1.8,0.2,3.6-0.1,4.8-1.3
	c1-1.1,1.6-3.3,1.4-5.6l1.6-0.2l0.6,4.2l27-3.2L48.9,27z M23.1,33.2l3.4-0.5c0.5,0.2,0.9,0.3,1.6,0.5c1,0.3,2.2,0.5,4-0.4
	c0.4-0.2,1.3-1,1.6-1.4l13.9-2.5L49,46.1l-23.8,4.3L23.1,33.2z M42.8,38.9l-4.6-3l-3.8,6.3l-4.4-1.3l-3.9,5.9l0.2,1.9l21.2-3.9
	l-1.2-13.2L42.8,38.9z M21.9,17c-1.3,0.9-1.3,2.7-0.1,3.8c0.1,0.1,0.2,0.2,0.3,0.2c0.4-0.2,0.8-0.3,1.2-0.5c0.8-0.3,1.4-0.4,2-0.5
	c0.3-0.3,0.6-0.8,0.5-1.7c-0.1-1.2-1-1-0.3-1.7C25.8,16.3,23.6,15.8,21.9,17z M32.2,25.7c1.2,0.9,2.2,1.5,3.3,1.3
	c0.7-0.1,1.2-1.1,1.7-2.1c0.3-0.7,0.3-1.4-0.1-1.6c-0.2-0.1-1.2-0.1-1.9,0c-1.3,0.2-2.7,0.6-3,0.9C31.5,24.6,31.8,25.4,32.2,25.7z
	 M32.5,16.5C32.5,16.5,32.5,16.5,32.5,16.5c0,0.1,0,0.1,0,0.1c0,0.1,0,0.1,0.1,0.2c0.3,0.7,0.7,1.3,1.3,1.6c0.2,0,0.3,0,0.5-0.1
	c0.6,0,0.9,0.1,1.1,0.2c0-0.1,0-0.3,0-0.5c0-0.8,0.2-2.2-1.4-3c-0.6-0.3-1.4-0.2-1.7,0.2c0,0,0.1,0,0.1,0c0.4,0.1,0.1,0.3,0.1,0.5
	C32.5,15.8,32.3,15.9,32.5,16.5z"/>
<path class="st0" d="M70.4,39H60.3V15.7h10.1c7.3,0,10.9,3.7,10.9,11C81.3,34.9,77.6,39,70.4,39z M64.6,35.2h5.1
	c4.8,0,7.2-2.8,7.2-8.5c0-4.8-2.4-7.3-7.2-7.3h-5.1V35.2z"/>
<polygon class="st0" points="85.8,39 81.4,39 91.3,15.7 95.9,15.7 106,39 101.4,39 98.4,32.6 91,32.6 92.5,28.9 97.3,28.9 
	93.5,20.2 "/>
<polygon class="st0" points="103.6,15.7 121.2,15.7 121.2,19.5 114.6,19.5 114.6,39 110.3,39 110.3,19.5 103.6,19.5 "/>
<polygon class="st0" points="123.5,39 119,39 128.9,15.7 133.6,15.7 143.7,39 139,39 136.1,32.6 128.6,32.6 130.1,28.9 134.9,28.9 
	131.1,20.2 "/>
<path class="st0" d="M156.6,39h-10.1V15.7h10.1c7.3,0,10.9,3.7,10.9,11C167.5,34.9,163.9,39,156.6,39z M150.8,35.2h5.1
	c4.8,0,7.3-2.8,7.3-8.5c0-4.8-2.4-7.3-7.3-7.3h-5.1V35.2z"/>
<path class="st0" d="M170.5,27.4c0-7.9,3.9-11.8,11.7-11.8c7.7,0,11.5,3.9,11.5,11.8c0,7.8-3.8,11.8-11.5,11.8
	C174.7,39.2,170.8,35.2,170.5,27.4 M182.2,35.4c4.7,0,7-2.7,7-8.1c0-5.3-2.3-8-7-8c-4.8,0-7.2,2.7-7.2,8
	C174.9,32.7,177.3,35.4,182.2,35.4"/>
<path class="st0" d="M211.7,29.6V35c-1,0.3-1.9,0.4-2.7,0.4c-5.3,0-7.9-2.8-7.9-8.4c0-5.2,2.8-7.7,8.4-7.7c2.3,0,4.5,0.4,6.5,1.3
	v-3.9c-2-0.8-4.3-1.1-6.8-1.1c-8.4,0-12.5,3.8-12.5,11.5c0,8.1,4.1,12.1,12.3,12.1c2.8,0,5.2-0.4,7.1-1.2V25.8h-7l-1.5,3.8H211.7z"
	/>
</svg>
