<?xml version="1.0" encoding="utf-8"?>
<!-- Generator: Adobe Illustrator 16.0.0, SVG Export Plug-In . SVG Version: 6.00 Build 0)  -->
<!DOCTYPE svg PUBLIC "-//W3C//DTD SVG 1.1//EN" "http://www.w3.org/Graphics/SVG/1.1/DTD/svg11.dtd">
<svg version="1.1" id="Layer_1" xmlns="http://www.w3.org/2000/svg" xmlns:xlink="http://www.w3.org/1999/xlink" x="0px" y="0px"
	 width="500.4px" height="155.52px" viewBox="0 0 500.4 155.52" enable-background="new 0 0 500.4 155.52" xml:space="preserve">
<polygon fill="#D42027" points="0.515,-0.113 33.719,-0.113 33.719,122.085 79.449,122.085 79.449,155.661 0.515,155.661 "/>
<path fill="#D42027" d="M156.948,0h25.904l63.208,155.661h-33.653l-12.418-30.587h-59.542l-12.164,30.587H94.81L156.948,0z
	 M169.903,50.979l-18.24,45.88h36.869L169.903,50.979z"/>
<polygon fill="#D42027" points="249.174,0 299.63,0 299.63,155.758 265.587,155.758 265.587,28.364 243.216,28.364 "/>
<g>
	<path fill="#D42027" d="M323,0v155.52h42.678c-10.39-2.007-17.762-7.72-17.762-21.67V79.265H331.97v-18.06h15.946V33.11h24.915
		v28.094h18.937v18.06h-18.937v45.687c0,8.715,2.253,10.896,10.911,10.896c2.707,0,6.032-0.183,8.025-0.728v20.158
		c0,0.006,0.2,0.242,0.168,0.242h41.06l-31.93-93.312h26.878l19.663,63.211h0.36l19.663-63.211h25.434l-31.566,93.312H500.4V0H323z"
		/>
</g>
</svg>
