<?xml version="1.0" encoding="utf-8"?>
<!-- Generator: Adobe Illustrator 19.0.0, SVG Export Plug-In . SVG Version: 6.00 Build 0)  -->
<svg version="1.1" id="Layer_1_copy_2" xmlns="http://www.w3.org/2000/svg" xmlns:xlink="http://www.w3.org/1999/xlink" x="0px"
	 y="0px" viewBox="728 133.5 492 527.2" style="enable-background:new 728 133.5 492 527.2;" xml:space="preserve">
<style type="text/css">
	.st0{display:none;fill:none;stroke:#FFFFFF;stroke-width:3;stroke-miterlimit:10;}
	.st1{display:none;fill:none;stroke:#FFFFFF;stroke-width:9;stroke-miterlimit:10;}
</style>
<line class="st0" x1="1429.6" y1="524.8" x2="402.9" y2="524.8"/>
<line class="st1" x1="454.8" y1="293.8" x2="1495.1" y2="293.8"/>
<g>
	<g>
		<path d="M974.2,342.1L974.2,342.1c-15.2,0-30.5-4-44.3-12L814.4,660.6h54.7l9.3-26.6l94.8-42.1l95.9,41.9l9.4,26.9h54.7
			l-115.5-330.5C1004.1,338.1,989.1,342.1,974.2,342.1 M973.8,361l16.6,47.5h-33.2L973.8,361z M946.2,439.8h55l7.3,20.8l-33.9,21.6
			l-35-23.5L946.2,439.8z M929.3,488.3l17.4,11.7l-27.6,17.6L929.3,488.3z M1055.2,594.1l-76.8-33.5h-10.5l-75.5,33.6l10.5-30.1
			l71.5-45.5l71.1,47.7L1055.2,594.1z M1028.8,518.5l-26.5-17.8l16.6-10.6L1028.8,518.5z"/>
	</g>
	<g>
		<path d="M851.6,317.7c5.2,0,10.4-2,14.4-6c7.9-7.9,7.9-20.8,0-28.8l0,0c-10.3-10.3-15.4-23.6-15.4-37.1c0-13.5,5.1-26.8,15.4-37.1
			c7.9-7.9,7.9-20.8,0-28.8c-7.9-7.9-20.8-8-28.8,0C819,198,809.9,222,809.9,245.8c0,23.8,9.1,47.8,27.3,65.9
			C841.2,315.7,846.4,317.7,851.6,317.7 M1082,179.9c-8,7.9-8,20.8,0,28.8c10.3,10.3,15.4,23.6,15.4,37.1c0,13.5-5.1,26.8-15.4,37.1
			c-8,8-8,20.8,0,28.8c4,4,9.2,6,14.4,6s10.4-2,14.4-6c18.2-18.2,27.3-42.1,27.3-65.9s-9.1-47.8-27.3-65.9
			C1102.8,172,1089.9,172,1082,179.9 M800.9,323.6c-21.5-21.5-32.2-49.5-32.2-77.7s10.7-56.2,32.2-77.7c7.9-7.9,7.9-20.8,0-28.8
			c-7.9-7.9-20.8-7.9-28.8,0c-29.4,29.4-44.1,68-44.1,106.5s14.7,77.1,44.1,106.5c4,4,9.2,6,14.4,6c5.2,0,10.4-2,14.4-6
			C808.8,344.4,808.8,331.5,800.9,323.6L800.9,323.6z M1175.9,139.3c-7.9-7.9-20.8-7.9-28.8,0c-7.9,7.9-7.9,20.8,0,28.8
			c21.5,21.5,32.2,49.5,32.2,77.7s-10.7,56.2-32.2,77.7c-7.9,7.9-7.9,20.8,0,28.8c4,4,9.2,6,14.4,6c5.2,0,10.4-2,14.4-6
			c29.4-29.4,44.1-68,44.1-106.5S1205.3,168.7,1175.9,139.3 M973.8,310.5c35.7,0,64.7-29,64.7-64.7s-29-64.7-64.7-64.7
			s-64.7,29-64.7,64.7S938,310.5,973.8,310.5"/>
	</g>
</g>
</svg>
